<?xml version="1.0" standalone="no"?>
<!DOCTYPE svg PUBLIC "-//W3C//DTD SVG 20010904//EN"
 "http://www.w3.org/TR/2001/REC-SVG-20010904/DTD/svg10.dtd">
<svg version="1.0" xmlns="http://www.w3.org/2000/svg"
 width="134.000000pt" height="53.000000pt" viewBox="0 0 134.000000 53.000000"
 preserveAspectRatio="xMidYMid meet">
<metadata>
Created by potrace 1.15, written by Peter Selinger 2001-2017
</metadata>
<g transform="translate(0.000000,53.000000) scale(0.100000,-0.100000)"
fill="#000000" stroke="none">
<path d="M526 508 c-9 -12 -16 -27 -16 -33 0 -6 -22 -9 -55 -7 -39 3 -55 0
-55 -8 0 -9 -13 -11 -45 -7 -42 6 -46 5 -55 -18 -7 -17 -17 -25 -34 -25 -37 0
-56 10 -56 30 0 26 -27 32 -55 14 -28 -18 -39 -46 -30 -74 7 -21 2 -23 -51
-20 -51 2 -74 -36 -74 -123 0 -69 0 -70 44 -113 35 -36 41 -46 30 -55 -8 -6
-14 -22 -14 -35 0 -27 42 -44 69 -27 9 6 25 7 36 3 34 -13 340 -12 371 1 16 6
43 11 60 10 20 -1 34 4 38 14 9 24 72 20 79 -5 5 -21 31 -27 42 -11 3 6 20 4
40 -5 27 -11 75 -14 198 -13 89 1 171 5 182 9 11 4 27 3 36 -3 27 -17 69 0 69
27 0 13 -6 29 -14 35 -11 9 -5 19 30 55 44 43 44 44 44 113 0 87 -23 125 -74
123 -53 -3 -58 -1 -51 20 9 28 -2 56 -30 74 -28 18 -55 12 -55 -14 0 -20 -19
-30 -56 -30 -17 0 -27 8 -34 25 -9 23 -13 24 -55 18 -31 -4 -45 -2 -45 6 0 8
-17 11 -52 9 -50 -3 -54 -1 -68 27 l-15 30 -132 3 c-127 2 -132 2 -147 -20z"/>
</g>
</svg>
